                                        ***
                                          *               
                ***  ****       ****              ****    
*** **** ****     **** **** *   * **** * ***      * **** * 
*** **** ***  *   **   ****   **  ****   ***    **  ****  
 **  **** ****    **         ****         **   ****       
 **   **   **     **           ***        *      ***      
 **   **   **     **             ***     *         ***    
 **   **   **     **               ***  ***          ***  
 **   **   **     **          ****  **   ***    ****  **  
 **   **   **     ***        * **** *     ***  * **** *   
 ***  ***  ***     ***          ****       ***    ****    
  ***  ***  ***                             **            
                                            ** 


Tees Maar Khan - (2010) (DVDScr) -1CDrip -XviD (mrsjs)


Plot :- Tees Maar Khan, adapted from an Italian movie After the Fox, revolves around a conman named Tabrez Mirza Khan (Akshay Kumar) who has been a criminal since youth. Two police officers Chatterjee (Murli Sharma) and Mukherjee (Aman Verma) are after him. He is in love with the struggling actress Anya (Katrina Kaif). He takes a job to rob a non-stop train loaded with precious antiques. He cons the people of Dhulia village into helping him by saying that he will make a historical film about their village. He fools the greedy actor Aatish Kapoor (Akshay Khanna) to work in his fake film. The robbery goes well but all the villagers and Tabrez Mirza Khan get arrested. He claims they are innocent. At the movie's premiere, Tabrez Mirza Khan is in handcuffs but eventually escapes as a rich man while Aatish receives an Oscar award for his role in the fake film.

Special Thanks to DDR team for the RIP.

Format                           : AVI
Format/Info                      : Audio Video Interleave
File size                        : 693 MiB
Duration                         : 2h 9mn
Overall bit rate                 : 745 Kbps
Writing application              : VirtualDubMod 1.5.10.2 (build 2540/release)
Writing library                  : VirtualDubMod build 2540/release

Video
ID                               : 0
Format                           : MPEG-4 Visual
Format profile                   : Advanced Simple@L5
Format settings, BVOP            : Yes
Format settings, QPel            : No
Format settings, GMC             : No warppoints
Format settings, Matrix          : Custom
Codec ID                         : XVID
Codec ID/Hint                    : XviD
Duration                         : 2h 9mn
Bit rate                         : 660 Kbps
Width                            : 624 pixels
Height                           : 288 pixels
Display aspect ratio             : 2.2:1
Frame rate                       : 25.000 fps
Color space                      : YUV
Chroma subsampling               : 4:2:0
Bit depth                        : 8 bits
Scan type                        : Progressive
Compression mode                 : Lossy
Bits/(Pixel*Frame)               : 0.147
Stream size                      : 614 MiB (89%)
Writing library                  : XviD 1.2.1 (UTC 2008-12-04)

Audio
ID                               : 1
Format                           : MPEG Audio
Format version                   : Version 2
Format profile                   : Layer 3
Mode                             : Joint stereo
Mode extension                   : Intensity Stereo + MS Stereo
Codec ID                         : 55
Codec ID/Hint                    : MP3
Duration                         : 2h 9mn
Bit rate mode                    : Constant
Bit rate                         : 80.0 Kbps
Channel(s)                       : 2 channels
Sampling rate                    : 24.0 KHz
Compression mode                 : Lossy
Stream size                      : 74.3 MiB (11%)
Alignment                        : Aligned on interleaves
Interleave, duration             : 1000 ms (25.00 video frames)
Interleave, preload duration     : 1008 ms


Screens :-



Enjoy ! mrsjs